<?xml version="1.0" encoding="UTF-8"?>
<svg id="Layer_2" data-name="Layer 2" xmlns="http://www.w3.org/2000/svg" viewBox="0 0 913.35 1390.73">
  <defs>
    <style>
      .cls-1, .cls-2 {
        fill: #fff;
      }

      .cls-3, .cls-4 {
        fill: #c0102d;
      }

      .cls-3, .cls-5, .cls-2 {
        stroke: #231f20;
        stroke-miterlimit: 10;
        stroke-width: 6px;
      }

      .cls-6 {
        fill: #231f20;
      }

      .cls-7, .cls-5 {
        fill: #002a66;
      }
    </style>
  </defs>
  <g id="Layer_1-2" data-name="Layer 1">
    <polygon class="cls-6" points="456.67 0 564.48 319.68 913.35 319.68 631.11 517.25 738.91 836.92 456.67 639.35 174.43 836.92 282.24 517.25 0 319.68 348.87 319.68 456.67 0"/>
    <polygon class="cls-4" points="724.45 435.48 455.46 435.48 456.67 623.1 712.5 803.66 616.26 512.83 724.45 435.48"/>
    <polygon class="cls-1" points="868.17 334.85 724.42 435.48 455.46 435.48 456.37 51.83 554.29 335.94 868.17 334.85"/>
    <polygon class="cls-7" points="359.44 336.27 46.12 337.09 299.64 515.61 202.36 801.67 457.19 624.64 456.37 51.83 359.44 336.27"/>
    <polygon class="cls-1" points="353.25 358.55 371.18 411.71 429.19 411.71 382.26 444.56 400.19 497.72 353.25 464.86 306.32 497.72 324.25 444.56 277.32 411.71 335.33 411.71 353.25 358.55"/>
    <g>
      <path class="cls-3" d="M67.69,1043.18v-185.35h61.05v185.35h-61.05ZM195.56,1043.18l-62.7-92.12v-1.38l62.97-91.85h78.37l-73.42,92.12,73.7,93.22h-78.92Z"/>
      <path class="cls-3" d="M379.26,1043.18h-73.7l41.8-62.97-69.57-122.37h71.5l35.75,66.27,38.77-66.27h70.4l-114.95,185.35Z"/>
      <path class="cls-3" d="M510.71,1043.18v-185.35h61.05v139.15h92.95v46.2h-154Z"/>
      <path class="cls-3" d="M688.91,1043.18v-185.35h156.75v42.07h-95.7v25.3h95.7v39.6h-95.7v36.3h95.7v42.07h-156.75Z"/>
    </g>
    <g>
      <path class="cls-2" d="M249.94,1140.03v41.85h-34.54v-104.85h87.89v23.8h-53.36v16.18h53.36v23.02h-53.36Z"/>
      <path class="cls-2" d="M385.27,1181.88l-20.07-37.49h-12.29v37.49h-34.54v-104.85h65.18c24.27,0,40.76,11.51,40.76,32.2,0,14.93-8.56,25.05-20.84,29.09-1.71.47-3.27.78-4.98,1.09l27.38,42.47h-40.6ZM377.65,1100.83h-24.73v20.22h24.42c7.93,0,11.98-4.36,11.98-10.58,0-5.45-3.89-9.65-11.67-9.65Z"/>
      <path class="cls-2" d="M494.01,1184.68c-35.62,0-62.07-22.56-62.07-55.22s26.29-55.22,62.07-55.22,62.07,22.09,62.07,55.22-26.29,55.22-62.07,55.22ZM494.01,1098.49c-17.58,0-25.82,12.45-25.82,29.71,0,19.13,8.4,32.05,25.82,32.05s25.98-12.91,25.98-32.05c0-17.27-8.4-29.71-25.98-29.71Z"/>
      <path class="cls-2" d="M663.41,1181.88v-48.22l-28.16,21.47h-3.58l-27.54-21.16v47.91h-34.54v-107.03h4.82l59.11,43.09,59.27-43.09h5.13v107.03h-34.54Z"/>
    </g>
    <g>
      <path class="cls-5" d="M157.11,1272.48v111.29h-48.83v-111.29h-47.95v-36.95h144.72v36.95h-47.95Z"/>
      <path class="cls-5" d="M220.67,1383.77v-148.24h125.37v33.65h-76.54v20.23h76.54v31.67h-76.54v29.03h76.54v33.65h-125.37Z"/>
      <path class="cls-5" d="M474.27,1383.77l-27.71-42.23-28.15,42.23h-59.82l52.79-74.78-52.13-73.46h60.26l27.27,42.23,27.49-42.23h60.04l-52.57,73.46,52.79,74.78h-60.26Z"/>
      <path class="cls-5" d="M661,1383.77l-8.36-24.19h-54.77l-8.14,24.19h-53l62.9-149.34h52.13l63.12,149.34h-53.89ZM625.37,1275.12l-16.94,51.69h33.65l-16.71-51.69Z"/>
      <path class="cls-5" d="M764.82,1387.73c-13.64,0-28.15-1.1-41.35-2.86l2.42-37.61c14.52,3.08,29.25,4.62,41.35,4.62,20.45,0,28.59-3.96,28.59-10.34,0-5.72-5.06-8.8-28.37-16.06-23.97-7.48-47.51-15.84-47.51-44.43,0-42.45,47.51-49.49,82.48-49.49,14.52,0,28.81.88,42.67,2.64l-2.2,37.39c-13.42-2.86-31.23-4.84-41.13-4.84-16.28,0-24.41,2.42-24.41,9.24,0,5.5,7.92,9.02,24.41,13.86,24.19,6.6,51.25,16.06,51.25,47.07,0,42.45-49.93,50.81-88.2,50.81Z"/>
    </g>
  </g>
</svg>